<svg width="24" height="24" viewBox="0 0 24 24" fill="none" xmlns="http://www.w3.org/2000/svg">
<g clip-path="url(#clip0_12_4540)">
<mask id="mask0_12_4540" style="mask-type:luminance" maskUnits="userSpaceOnUse" x="0" y="0" width="24" height="24">
<path d="M0 0H24V24H0V0Z" fill="white"/>
</mask>
<g mask="url(#mask0_12_4540)">
<path d="M0.0568848 24L1.74388 17.837C0.701353 16.029 0.153955 13.9781 0.156885 11.891C0.159885 5.33504 5.49488 3.5679e-05 12.0499 3.5679e-05C13.6132 -0.00380523 15.1617 0.302502 16.6058 0.901223C18.0499 1.49994 19.3609 2.37918 20.4629 3.48804C21.5704 4.59079 22.4482 5.90224 23.0456 7.3465C23.6429 8.79075 23.9479 10.3391 23.9429 11.902C23.9399 18.459 18.6049 23.794 12.0499 23.794C10.0627 23.7939 8.10725 23.2961 6.36188 22.346L0.0568848 24ZM6.65388 20.193C8.32988 21.188 9.92988 21.784 12.0459 21.785C17.4939 21.785 21.9319 17.351 21.9349 11.9C21.9369 6.43804 17.5199 2.01004 12.0539 2.00804C6.60188 2.00804 2.16688 6.44204 2.16388 11.892C2.16388 14.117 2.81588 15.783 3.91088 17.526L2.91088 21.174L6.65388 20.193ZM18.0409 14.729C17.9669 14.605 17.7689 14.531 17.4709 14.382C17.1729 14.233 15.7129 13.514 15.4399 13.415C15.1679 13.316 14.9699 13.266 14.7699 13.564C14.5729 13.861 14.0029 14.531 13.8299 14.729C13.6569 14.927 13.4829 14.952 13.1859 14.803C12.8889 14.654 11.9309 14.341 10.7959 13.328C9.91288 12.54 9.31588 11.567 9.14288 11.269C8.96988 10.972 9.12488 10.811 9.27288 10.663C9.40688 10.53 9.56988 10.316 9.71888 10.142C9.86888 9.97004 9.91888 9.84604 10.0189 9.64704C10.1179 9.44904 10.0689 9.27504 9.99389 9.12604C9.91889 8.97804 9.32388 7.51504 9.07788 6.92004C8.83589 6.34104 8.59088 6.41904 8.40788 6.41004L7.83788 6.40004C7.64088 6.40004 7.31788 6.47404 7.04688 6.77204C6.77488 7.07004 6.00688 7.78804 6.00688 9.25104C6.00688 10.714 7.07188 12.127 7.21988 12.325C7.36788 12.523 9.31488 15.525 12.2959 16.812C13.0049 17.118 13.5589 17.301 13.9899 17.438C14.7019 17.664 15.3499 17.632 15.8619 17.556C16.4319 17.471 17.6199 16.837 17.8679 16.143C18.1159 15.449 18.1159 14.853 18.0409 14.729Z" fill="white"/>
</g>
</g>
<defs>
<clipPath id="clip0_12_4540">
<rect width="24" height="24" fill="white"/>
</clipPath>
</defs>
</svg>
