<svg width="22" height="17" viewBox="0 0 22 17" fill="none" xmlns="http://www.w3.org/2000/svg">
<mask id="mask0_1298_888" style="mask-type:luminance" maskUnits="userSpaceOnUse" x="0" y="0" width="22" height="17">
<path d="M0.668701 0.541016H22V16.541H0.668701V0.541016Z" fill="white"/>
</mask>
<g mask="url(#mask0_1298_888)">
<path fill-rule="evenodd" clip-rule="evenodd" d="M-0.665771 0.541016H23.3342V16.541H-0.665771V0.541016Z" fill="#186609"/>
<path fill-rule="evenodd" clip-rule="evenodd" d="M5.38083 5.07522C5.35583 5.45022 5.31833 6.10647 5.64021 6.17522C6.02458 6.21272 5.81208 5.52522 5.95271 5.40022C5.97771 5.33772 6.02458 5.33772 6.02771 5.41585V6.00022C6.02771 6.18772 6.15271 6.24397 6.24646 6.28147C6.34646 6.27522 6.41521 6.28147 6.45271 6.37522L6.50271 7.3846C6.50271 7.3846 6.73396 7.45335 6.74646 6.81897C6.75583 6.44397 6.67146 6.1346 6.72146 6.06272C6.72146 5.99085 6.81521 5.98772 6.87771 6.0221C6.97771 6.09085 7.02146 6.17835 7.17771 6.1471C7.41521 6.07835 7.55896 5.96272 7.56208 5.78147C7.55739 5.60335 7.52033 5.42757 7.45271 5.26272C7.46521 5.23147 7.40896 5.1471 7.42146 5.11585C7.46208 5.1846 7.52771 5.17835 7.54021 5.11585C7.49958 4.9846 7.43708 4.85647 7.33708 4.80335C7.25271 4.72835 7.12771 4.74085 7.08708 4.8971C7.06208 5.07522 7.14958 5.2846 7.27771 5.4596C7.30583 5.52522 7.34333 5.63772 7.32771 5.73772C7.25896 5.77835 7.19021 5.7596 7.13083 5.70022C7.13083 5.70022 6.94333 5.5596 6.94333 5.52522C6.99333 5.20647 6.95271 5.16897 6.92458 5.07835C6.90583 4.95647 6.84646 4.91585 6.79958 4.8346C6.75271 4.7846 6.69021 4.7846 6.65896 4.8346C6.57458 4.97835 6.61521 5.28772 6.67458 5.42835C6.71833 5.55647 6.78396 5.63772 6.75271 5.63772C6.72771 5.7096 6.67458 5.69085 6.63396 5.60647C6.58822 5.4289 6.56616 5.24607 6.56833 5.06272C6.55271 4.91897 6.53396 4.61272 6.43708 4.53147C6.38083 4.45647 6.29646 4.49397 6.26521 4.56272C6.25696 4.70233 6.26009 4.84237 6.27458 4.98147C6.33708 5.21272 6.35896 5.41897 6.39021 5.65335C6.39958 5.96897 6.20896 5.79085 6.21833 5.63147C6.25933 5.43111 6.25613 5.22422 6.20896 5.02522C6.17771 4.94397 6.14333 4.92522 6.06521 4.93772C6.00583 4.93772 5.85271 5.10335 5.80896 5.3846C5.80896 5.3846 5.77146 5.52835 5.75583 5.65647C5.73396 5.80022 5.64021 5.90647 5.57146 5.63772C5.51521 5.44085 5.47771 4.96272 5.38396 5.07522H5.38083Z" fill="white"/>
<path fill-rule="evenodd" clip-rule="evenodd" d="M6.42798 6.60859L5.42798 7.08984C5.43735 6.86172 5.89985 6.45234 6.2186 6.44922C6.42173 6.45234 6.37173 6.52734 6.42485 6.60859H6.42798Z" fill="white"/>
<path fill-rule="evenodd" clip-rule="evenodd" d="M6.25019 6.92204C5.72519 8.28141 7.48457 8.47204 7.68144 6.97829C7.70019 6.91579 7.77519 6.85641 7.78769 6.95641C7.74707 8.30954 6.42519 8.40016 6.20019 7.97516C6.14726 7.82893 6.12081 7.67443 6.12207 7.51891C6.09082 7.25329 5.95019 7.35641 5.92832 7.61891C5.90644 7.76579 5.91269 7.80641 5.91269 7.94704C5.98144 9.01579 7.68457 8.55641 7.96269 7.67516C8.10957 7.18766 7.93769 6.82829 8.01582 6.82829C8.18457 7.00954 8.42207 6.85329 8.47519 6.79079C8.49707 6.75954 8.55332 6.73766 8.59082 6.77829C8.72207 6.87204 8.95332 6.82829 9.00332 6.66266C9.03144 6.49704 9.05332 6.32829 9.05957 6.15641C8.95019 6.18766 8.87207 6.20954 8.86269 6.25641L8.84082 6.40016C8.83144 6.44704 8.74082 6.44704 8.73457 6.38766C8.69394 6.20016 8.52519 6.17829 8.42207 6.46579C8.35644 6.52204 8.23144 6.53454 8.21894 6.45016C8.23457 6.25641 8.15644 6.23141 8.00019 6.32204L7.85019 5.19079C7.91269 5.19079 7.97519 5.23766 8.03457 5.16266C7.97207 4.95954 7.83144 4.54704 7.75332 4.51579C7.71894 4.47204 7.68769 4.50016 7.63769 4.51266C7.55644 4.53766 7.48144 4.60641 7.50644 4.74391C7.60019 5.33141 7.66269 5.77829 7.75957 6.36891C7.77519 6.43454 7.71894 6.52516 7.64394 6.51579C7.51894 6.43141 7.48769 6.25954 7.26894 6.26579C7.11269 6.26579 6.93769 6.43766 6.91582 6.60016C6.88769 6.73141 6.87832 6.87204 6.91582 6.98454C7.02519 7.11579 7.15644 7.10329 7.27207 7.07516C7.36582 7.03454 7.44394 6.94079 7.47832 6.96266C7.50019 6.99079 7.48144 7.30329 7.03144 7.54079C6.75957 7.66579 6.54082 7.69079 6.42519 7.46891C6.35332 7.32829 6.43144 6.80016 6.25019 6.92204Z" fill="white"/>
<path fill-rule="evenodd" clip-rule="evenodd" d="M8.49025 5.54026C8.59338 5.50276 9.09338 4.92776 9.09338 4.92776L9.01838 4.86526C8.99025 4.84339 8.99338 4.81839 9.01838 4.79651C9.14338 4.72151 9.10276 4.56526 9.04026 4.49026C8.99782 4.46958 8.95115 4.45909 8.90395 4.45963C8.85675 4.46017 8.81032 4.47173 8.76838 4.49339C8.68088 4.57776 8.66213 4.71214 8.73088 4.79339C8.7965 4.82464 8.86213 4.89339 8.81838 4.93089C8.61213 5.14964 8.05276 5.52776 8.11838 5.54026C8.13088 5.55901 8.47775 5.55901 8.48713 5.54026H8.49025ZM5.459 7.57151C5.2715 7.87151 5.25588 8.31839 5.35901 8.45276C5.41526 8.51526 5.50588 8.54339 5.5715 8.52151C5.69025 8.47151 5.74338 8.23089 5.71525 8.14651C5.67463 8.08401 5.64338 8.07464 5.60275 8.12464C5.5215 8.29339 5.48713 8.17776 5.47775 8.08401C5.4688 7.92524 5.47718 7.76596 5.50276 7.60901C5.52463 7.47776 5.50275 7.51526 5.459 7.57151ZM13.4934 7.09339C13.3121 6.69964 13.059 6.31214 12.9809 6.16526C12.7374 5.78027 12.4788 5.40499 12.2059 5.04026C12.0121 4.80901 12.5246 5.13714 12.1434 4.67464L11.8653 4.44026C11.8028 4.39651 11.6528 4.31526 11.6278 4.44651C11.6153 4.56526 11.6215 4.62776 11.6403 4.72464C11.6559 4.78714 11.7496 4.89651 11.7965 4.95901C12.4372 5.80759 12.9999 6.71231 13.4778 7.66214C13.559 7.62151 13.5403 7.15901 13.4934 7.09339Z" fill="white"/>
<path fill-rule="evenodd" clip-rule="evenodd" d="M12.6969 8.39951C12.6594 8.44014 12.7844 8.61201 12.9469 8.61201C13.2156 8.58076 13.4531 8.43076 13.6719 8.03076C13.7608 7.8977 13.8175 7.74578 13.8375 7.58701C13.864 6.82839 13.8032 6.06925 13.6563 5.32452C13.6469 5.26202 13.6563 5.18702 13.6625 5.16827C13.6813 5.14639 13.7406 5.16826 13.7719 5.11514C13.8188 5.06826 13.6469 4.67764 13.5531 4.53076C13.5219 4.46201 13.5063 4.41827 13.45 4.53702C13.3821 4.66805 13.3498 4.81459 13.3563 4.96201C13.4844 5.85264 13.525 6.63076 13.6063 7.52139C13.6156 7.60889 13.6031 7.73389 13.5438 7.78389C13.308 8.04643 13.0194 8.25622 12.6969 8.39951ZM16.3375 8.39639C16.1438 8.50889 16.1438 8.63702 16.3 8.64014C16.5688 8.60889 16.8875 8.58701 17.1063 8.25576C17.1835 8.09975 17.2282 7.92962 17.2375 7.75576C17.2768 7.00882 17.2275 6.25985 17.0906 5.52451C17.0844 5.46201 17.0563 5.31514 17.0656 5.29639C17.0844 5.25264 17.1719 5.29951 17.2031 5.24951C17.2469 5.20264 16.975 4.85264 16.8781 4.70264C16.8469 4.63389 16.8344 4.59014 16.775 4.70889C16.7121 4.84113 16.6924 4.98983 16.7188 5.13389C16.8625 6.10264 16.9688 6.82764 16.9906 7.68389C16.9781 7.76514 16.975 7.80889 16.9375 7.91201C16.8531 8.01826 16.7594 8.15577 16.6719 8.22139C16.5844 8.28389 16.3969 8.34639 16.3375 8.39639Z" fill="white"/>
<path fill-rule="evenodd" clip-rule="evenodd" d="M16.4816 7.53125C16.4816 7.30313 16.4847 7.10938 16.4785 6.9375C16.4764 6.79194 16.4445 6.64835 16.3847 6.51563C16.3285 6.3875 16.3628 6.28438 16.3347 6.14688C16.3097 6.00938 16.316 5.80313 16.2785 5.64375C16.266 5.58125 16.2347 5.37813 16.2441 5.35625C16.2597 5.3125 16.3191 5.35625 16.3503 5.30625C16.3941 5.25938 16.1941 4.74375 16.0941 4.59688C16.0597 4.53125 15.991 4.55313 15.9128 4.65938C15.8347 4.73125 15.8628 4.89063 15.8941 5.04375C16.0847 6.05313 16.2316 6.96875 16.2003 7.92813C16.1878 8.00938 16.4816 7.68438 16.4816 7.53125ZM15.0535 6.28125C14.9316 6.275 14.6785 6.04063 14.6035 5.90625C14.5912 5.87341 14.586 5.83836 14.5881 5.80336C14.5903 5.76837 14.5998 5.73422 14.616 5.70313C14.6628 5.67188 14.7316 5.64063 14.7847 5.67188C14.7847 5.67188 14.8378 5.74688 14.8285 5.75625C14.891 5.7875 14.9222 5.77188 14.9285 5.74375C14.9316 5.69688 14.9097 5.66875 14.9097 5.61875C14.9378 5.475 15.0972 5.45313 15.1597 5.54375C15.2035 5.6 15.2222 5.71563 15.2253 5.79375C15.2253 5.83438 15.1628 5.7875 15.1222 5.79375C15.0878 5.80625 15.0785 5.85 15.0753 5.8875C15.0691 5.99063 15.0566 6.15625 15.0535 6.27813V6.28125ZM12.8097 7.78125C12.841 7.475 12.7972 6.92813 12.7941 6.74688C12.7774 6.28074 12.7388 5.81565 12.6785 5.35313C12.641 5.09063 12.7847 5.38125 12.766 5.22813C12.7191 4.96875 12.5753 4.79063 12.4035 4.55625C12.3503 4.47813 12.3503 4.4625 12.266 4.575C12.1722 4.78438 12.2535 4.93125 12.2785 5.09688C12.4003 5.63438 12.4722 6.12813 12.5066 6.61875C12.5426 7.12842 12.5467 7.63982 12.5191 8.15C12.6128 8.15313 12.7566 8.00313 12.8097 7.78125Z" fill="white"/>
<path fill-rule="evenodd" clip-rule="evenodd" d="M16.8965 7.291C16.6808 6.9285 16.359 6.541 16.2715 6.39413C15.9817 5.98947 15.6773 5.59546 15.359 5.21288C15.0933 4.93163 15.484 5.166 15.309 4.94725C15.1621 4.78788 15.1215 4.73475 14.9933 4.63788C14.9308 4.59725 14.8933 4.51913 14.8683 4.6535C14.8584 4.7699 14.8563 4.88683 14.8621 5.0035C14.8621 5.05663 14.9183 5.15975 14.9683 5.22225C15.6152 6.01913 16.3246 6.83163 16.8933 7.8535C16.9746 7.81288 16.9465 7.3535 16.8933 7.291H16.8965Z" fill="white"/>
<path fill-rule="evenodd" clip-rule="evenodd" d="M7.16518 6.62629C7.14956 6.65441 7.11518 6.68879 7.12768 6.72316C7.14956 6.75441 7.17143 6.76379 7.20893 6.76379C7.24331 6.76379 7.29331 6.77316 7.30268 6.75441C7.32143 6.73254 7.33393 6.69191 7.32143 6.65129C7.28393 6.55754 7.18393 6.59504 7.16518 6.62629Z" fill="#1BA400"/>
<path fill-rule="evenodd" clip-rule="evenodd" d="M14.4027 11.8683C14.6902 11.8808 14.8777 11.8839 15.1308 11.912L15.4308 11.8808C15.7621 11.8495 15.7746 12.3526 15.7746 12.3526C15.7746 12.6495 15.6589 12.6651 15.5121 12.6964C15.4277 12.7089 15.3871 12.6464 15.3402 12.5839C15.2695 12.6066 15.1942 12.6109 15.1214 12.5964C14.9996 12.5901 14.8808 12.5901 14.7621 12.5808C14.6371 12.5714 14.5683 12.5964 14.4402 12.5839C14.4152 12.6245 14.3777 12.6808 14.3027 12.6651C14.2402 12.6558 14.1621 12.4776 14.1839 12.337C14.2308 12.237 14.2152 12.2714 14.2152 12.2276C13.0402 12.1964 11.8558 12.1433 10.7058 12.1589C9.80581 12.162 8.91831 12.1995 8.02769 12.237C7.55269 12.2308 7.19019 12.1558 6.94019 11.7901C6.96519 11.7901 8.15269 11.8558 8.49956 11.8339C9.14019 11.8276 9.72769 11.7745 10.3808 11.7558C11.6683 11.7776 12.9464 11.7776 14.2339 11.8683C14.1089 11.7839 14.1089 11.587 14.2964 11.537C14.3121 11.5245 14.3214 11.6339 14.3496 11.6308C14.5027 11.6214 14.4339 11.8276 14.4027 11.8683ZM9.22769 4.76827C9.03394 5.32452 9.34019 5.93702 9.55269 5.87765C9.70894 5.94015 9.80269 5.6464 9.86519 5.32765C9.91206 5.23702 9.94331 5.22765 9.96518 5.27452C9.95894 5.69952 9.99643 5.7964 10.1058 5.92452C10.3496 6.11202 10.5527 5.94952 10.5683 5.9339L10.7558 5.74327C10.7996 5.6964 10.8558 5.6964 10.9152 5.7339C10.9746 5.78702 10.9652 5.87765 11.0902 5.94015C11.1964 5.9839 11.4183 5.95265 11.4714 5.86202C11.5402 5.74015 11.5589 5.69952 11.5902 5.65577C11.6402 5.59015 11.7246 5.61827 11.7246 5.64015C11.7152 5.67765 11.6652 5.71202 11.6996 5.78077C11.7621 5.82452 11.7746 5.7964 11.8089 5.78702C11.9339 5.72452 12.0277 5.45577 12.0277 5.45577C12.0308 5.35577 11.9746 5.36202 11.9371 5.38702L11.8402 5.45265C11.7777 5.46202 11.6621 5.50265 11.6027 5.41202C11.5433 5.30577 11.5433 5.15265 11.4996 5.04327C11.4996 5.03702 11.4183 4.8714 11.4933 4.86202C11.5308 4.86827 11.6089 4.89015 11.6214 4.82452C11.6589 4.7589 11.5402 4.57452 11.4558 4.48077C11.3839 4.40265 11.2839 4.39327 11.1871 4.47452C11.1183 4.53702 11.1277 4.60577 11.1152 4.6714C11.1033 4.71843 11.1028 4.7676 11.1137 4.81487C11.1245 4.86213 11.1465 4.90614 11.1777 4.94327C11.2464 5.07452 11.3683 5.2464 11.3277 5.49015C11.3277 5.49015 11.2558 5.60265 11.1308 5.58702C11.0777 5.57765 10.9933 5.55577 10.9496 5.21827C10.9152 4.96827 10.9558 4.61202 10.8496 4.4464C10.8089 4.34327 10.7808 4.2464 10.6871 4.41827C10.6621 4.48702 10.5527 4.59015 10.6308 4.79952C10.7047 4.9882 10.7263 5.19334 10.6933 5.39327C10.6464 5.46202 10.6371 5.4839 10.5777 5.54952C10.4964 5.64327 10.4058 5.61827 10.3371 5.5839C10.2746 5.54327 10.2246 5.5214 10.1933 5.38077C10.1996 5.16202 10.2121 4.80265 10.1714 4.72765C10.1121 4.6089 10.0152 4.65265 9.97456 4.69015C9.78866 4.89666 9.66419 5.15102 9.61519 5.42452C9.55894 5.60577 9.49956 5.55265 9.45894 5.48077C9.35894 5.38702 9.34956 4.6464 9.22769 4.76827Z" fill="white"/>
<path fill-rule="evenodd" clip-rule="evenodd" d="M9.81558 5.98198C9.9062 5.91948 9.86558 5.87573 9.99683 6.00698C10.1662 6.30672 10.2646 6.64136 10.2843 6.9851C10.2781 7.06635 10.3343 7.11635 10.3625 7.0976C10.375 6.9101 10.8343 6.6476 11.2562 6.6101C11.3187 6.59448 11.2875 6.4726 11.2968 6.4101C11.2718 6.17573 11.4281 5.96323 11.6468 5.9476C11.9468 5.99135 12.0468 6.15073 12.0531 6.39135C12.0187 6.8601 11.5312 6.93823 11.2593 6.97573C11.2187 6.99135 11.2 7.0101 11.2593 7.03198L12.4031 7.03823L12.4625 7.06948C12.4687 7.10073 12.4437 7.07573 12.4 7.15073C12.337 7.26126 12.2977 7.38362 12.2843 7.5101C11.9437 7.6226 11.5906 7.66635 11.2343 7.71323C11.1093 7.77573 11.0468 7.8601 11.0718 7.95385C11.1156 8.05698 11.3906 8.16323 11.3906 8.16635C11.4437 8.1976 11.5031 8.27573 11.375 8.4351C10.8187 8.4101 10.3843 8.1726 10.2343 7.83823C10.1906 7.80385 10.1406 7.83823 10.1093 7.88198C9.89058 8.16323 9.67808 8.41322 9.30621 8.55072C9.08746 8.60698 8.85933 8.51635 8.75308 8.3726C8.6812 8.28823 8.68433 8.1976 8.65933 8.17885C8.53745 8.23198 7.50621 8.66948 7.63745 8.46323C7.88745 8.1976 8.32495 7.9976 8.7062 7.7351C8.73433 7.64448 8.78433 7.34448 8.93433 7.2476C8.9437 7.2476 8.91246 7.4226 8.91558 7.4976C8.91558 7.5601 8.90933 7.58198 8.92183 7.56635C8.94995 7.55073 9.41246 7.1851 9.45308 7.0726C9.49683 7.0101 9.46246 6.8476 9.46246 6.84135C9.37496 6.61635 9.25308 6.5976 9.20933 6.4851C9.1687 6.33823 9.18745 6.16948 9.27183 6.11948C9.34683 6.05385 9.43433 6.0601 9.5187 6.1351C9.61245 6.21948 9.69371 6.3851 9.7187 6.50698C9.70308 6.55385 9.5937 6.47573 9.56245 6.4976C9.6226 6.56672 9.6626 6.65104 9.67808 6.74135C9.74058 6.9976 9.72183 7.0976 9.65933 7.26323C9.45308 7.6976 9.19058 7.82573 8.95933 7.98823C8.95308 7.98823 8.94995 8.0976 9.03433 8.15698C9.06558 8.18823 9.18745 8.20385 9.32808 8.15698C9.62851 7.99013 9.87144 7.73631 10.025 7.42885C10.0515 7.1949 10.0259 6.95797 9.94995 6.7351C9.85933 6.52573 9.75308 6.22885 9.75308 6.2226C9.74995 6.09135 9.75933 6.0476 9.81558 5.98198ZM6.82183 4.77573C6.95308 4.83823 7.20308 4.8101 7.19058 4.5976L7.18433 4.50072C7.15933 4.43822 7.08433 4.45385 7.06871 4.51635C7.06246 4.53822 7.07808 4.5726 7.05933 4.58198C7.04683 4.59448 7.00621 4.58823 7.00621 4.52885C7.00621 4.5101 6.99371 4.49135 6.98433 4.47885C6.97808 4.4726 6.97183 4.4726 6.95621 4.4726C6.93746 4.4726 6.93746 4.47573 6.92808 4.49135C6.92496 4.50698 6.91871 4.5226 6.91871 4.54135C6.91871 4.56323 6.90621 4.56948 6.89371 4.5726C6.87496 4.5726 6.87808 4.5726 6.86246 4.56635C6.85621 4.55698 6.84683 4.55385 6.84683 4.5351L6.83746 4.4851C6.83121 4.47572 6.81871 4.46948 6.80621 4.46635C6.73433 4.46635 6.72808 4.55073 6.73433 4.58198C6.72808 4.58823 6.72496 4.7351 6.82183 4.77573Z" fill="white"/>
<path fill-rule="evenodd" clip-rule="evenodd" d="M10.6813 6.40661C10.8126 6.46911 11.1282 6.43474 11.0501 6.23161L11.0438 6.13161C11.0157 6.06911 10.9438 6.08474 10.9282 6.15036C10.9219 6.16911 10.9376 6.20349 10.9157 6.21286C10.9063 6.22536 10.8626 6.21911 10.8657 6.16286C10.8657 6.14411 10.8532 6.12224 10.8438 6.10974C10.8344 6.10661 10.8313 6.10349 10.8126 6.10349C10.7969 6.10349 10.7969 6.10974 10.7876 6.12536C10.7813 6.14099 10.7782 6.15661 10.7782 6.17536C10.7751 6.19411 10.7657 6.20036 10.7501 6.20661C10.7344 6.20661 10.7376 6.20661 10.7251 6.19724C10.7157 6.18786 10.7063 6.18474 10.7063 6.16911L10.6969 6.11911C10.6907 6.10974 10.6782 6.10349 10.6657 6.10036C10.5938 6.10036 10.5876 6.18161 10.5907 6.21286C10.5876 6.21911 10.5844 6.36911 10.6844 6.40661H10.6813ZM12.9313 5.73161C13.0626 5.79411 13.3094 5.76599 13.3001 5.55661L13.2938 5.45661C13.2657 5.39411 13.1938 5.40974 13.1782 5.47224C13.1719 5.49411 13.1876 5.52849 13.1657 5.54099C13.1563 5.55036 13.1126 5.54411 13.1157 5.48474C13.1157 5.46599 13.1032 5.44724 13.0938 5.43474C13.0844 5.42849 13.0813 5.42849 13.0626 5.42849C13.0469 5.42849 13.0469 5.43474 13.0376 5.45036L13.0282 5.49724C13.0251 5.51911 13.0157 5.52849 13.0001 5.52849C12.9844 5.52849 12.9876 5.52849 12.9751 5.52224C12.9657 5.51286 12.9563 5.50974 12.9563 5.49411C12.9563 5.47849 12.9532 5.45349 12.9469 5.44099C12.9407 5.43161 12.9282 5.42849 12.9157 5.42536C12.8438 5.42536 12.8376 5.50661 12.8407 5.53786C12.8376 5.54411 12.8344 5.69099 12.9344 5.73161H12.9313ZM14.0969 7.42849C13.8688 7.68786 13.9688 8.11599 14.0219 8.20974C14.0969 8.35974 14.1563 8.45661 14.3032 8.53161C14.4376 8.62849 14.5438 8.56911 14.6001 8.50036C14.7344 8.35974 14.7376 8.00036 14.8001 7.93161C14.8438 7.80036 14.9563 7.82224 15.0094 7.88161C15.0591 7.95217 15.1258 8.00911 15.2032 8.04724C15.3282 8.15661 15.4782 8.17849 15.6282 8.07849C15.7282 8.01911 15.7938 7.94724 15.8532 7.80036C15.9157 7.62536 15.8844 6.81286 15.8688 6.33161L15.7376 5.65974C15.7376 5.65349 15.7219 5.34099 15.7063 5.26911C15.7063 5.23786 15.6969 5.22849 15.7282 5.23161C15.7626 5.26286 15.7657 5.26286 15.7907 5.27224C15.8219 5.27849 15.8532 5.21911 15.8313 5.16911L15.5188 4.58786C15.4938 4.56286 15.4594 4.53786 15.4188 4.59411C15.3948 4.61581 15.3758 4.64236 15.3628 4.67199C15.3499 4.70162 15.3434 4.73366 15.3438 4.76599C15.3532 4.90349 15.3751 5.04411 15.3844 5.18161L15.5094 5.88786C15.5501 6.38786 15.5594 6.80036 15.6001 7.30349C15.5938 7.51599 15.5282 7.70036 15.4657 7.72849C15.4657 7.72849 15.3719 7.78161 15.3094 7.72224C15.2626 7.70349 15.0782 7.41286 15.0782 7.41286C14.9844 7.32849 14.9219 7.35036 14.8563 7.41286C14.6688 7.59411 14.5876 7.92536 14.4594 8.15661C14.4282 8.20974 14.3344 8.25036 14.2344 8.15349C13.9782 7.80036 14.1282 7.30036 14.0969 7.42849ZM12.9907 4.50036C13.1094 4.54724 13.1907 4.78786 13.1657 4.90661C13.1407 5.04724 13.0782 5.20349 13.0344 5.18474C12.9844 5.16599 13.0657 5.04099 13.0188 4.90974C12.9938 4.82224 12.8313 4.66599 12.8501 4.62224C12.8188 4.52536 12.9188 4.48161 12.9907 4.49724V4.50036Z" fill="white"/>
<path fill-rule="evenodd" clip-rule="evenodd" d="M14.4777 7.57186C14.4995 7.28436 14.4589 7.10936 14.4527 6.94061C14.4464 6.77186 14.262 5.48436 14.2245 5.35936C14.1777 5.11561 14.4027 5.32811 14.3777 5.18436C14.2995 5.00936 14.1089 4.74999 14.0495 4.59686C14.012 4.53436 14.0277 4.47186 13.9464 4.58124C13.8765 4.773 13.8519 4.97837 13.8745 5.18124C14.0683 6.19061 14.2652 7.02811 14.2339 7.98749C14.3277 7.98749 14.4308 7.77811 14.4777 7.57186ZM16.4902 4.90624C16.5995 4.95936 16.662 5.25936 16.6495 5.34374C16.6277 5.49999 16.5714 5.66874 16.5308 5.64686C16.4839 5.62811 16.5402 5.41561 16.5183 5.34999C16.4933 5.25624 16.3464 5.08749 16.362 5.03749C16.3308 4.93124 16.4245 4.88749 16.4902 4.90624ZM8.49954 7.02811C8.60267 7.06874 8.66517 7.28749 8.65579 7.34999C8.63079 7.46561 8.57767 7.59061 8.53704 7.57186C8.49642 7.55936 8.54642 7.40311 8.52767 7.35311C8.51829 7.23749 8.37454 7.17499 8.37767 7.12499C8.35267 7.03124 8.44017 7.01561 8.50267 7.02811H8.49954Z" fill="white"/>
<path fill-rule="evenodd" clip-rule="evenodd" d="M10.9871 7.35898C11.1184 7.36523 11.184 7.47148 11.0621 7.51523C10.9371 7.55586 10.8215 7.59023 10.8184 7.76523C10.8653 8.01523 10.7559 7.92773 10.6934 7.89648C10.6184 7.84023 10.4059 7.70898 10.3746 7.42773C10.3715 7.36211 10.4246 7.30273 10.509 7.30273C10.634 7.33711 10.8215 7.34023 10.9871 7.35898Z" fill="#2D5B23"/>
<path fill-rule="evenodd" clip-rule="evenodd" d="M5.75362 4.42815C5.90362 4.4719 5.91299 4.6969 5.90362 4.76252C5.88174 4.88127 5.82862 5.0094 5.79112 4.99377C5.74737 4.97815 5.79112 4.81565 5.76924 4.76565C5.74737 4.6969 5.61924 4.56565 5.63174 4.52815C5.60362 4.45002 5.69424 4.41252 5.75362 4.42815ZM8.75049 5.47815C8.63174 5.54065 8.58799 5.72815 8.65987 5.84065C8.72862 5.9344 8.83487 5.90002 8.84737 5.90002C8.96299 5.91252 9.03174 5.6844 9.03174 5.6844C9.03174 5.6844 9.03487 5.6219 8.90049 5.74377C8.84112 5.75315 8.83799 5.73127 8.82237 5.70002C8.80806 5.64053 8.81355 5.57799 8.83799 5.5219C8.85987 5.46565 8.81612 5.44065 8.75049 5.47815ZM9.62549 4.34065C9.56299 4.38127 9.44737 4.50315 9.44424 4.64065C9.44112 4.71877 9.42549 4.71877 9.47549 4.76565C9.51612 4.8219 9.55049 4.81877 9.62549 4.77815C9.64418 4.76638 9.66022 4.75086 9.67259 4.73257C9.68497 4.71428 9.6934 4.69362 9.69737 4.6719C9.71612 4.5844 9.60362 4.71565 9.59112 4.61565C9.56612 4.5219 9.63799 4.4844 9.70674 4.3969C9.70674 4.3344 9.70674 4.29377 9.62237 4.34065H9.62549ZM10.3255 4.46565C10.2979 4.57944 10.2812 4.69558 10.2755 4.81252C10.2567 4.90002 10.3692 4.93752 10.4161 4.82502C10.4911 4.6219 10.4911 4.5344 10.4974 4.45002C10.4755 4.31565 10.3849 4.31877 10.3255 4.46565ZM14.763 6.72502C14.7755 6.7094 15.388 6.27502 15.388 6.27502C15.4505 6.25315 15.4349 6.50002 15.4067 6.4969C15.2168 6.67997 14.9983 6.8309 14.7599 6.94377C14.7286 6.96565 14.7005 6.77815 14.7599 6.72502H14.763ZM15.3161 6.71877C15.4255 6.7719 15.4692 7.08752 15.4567 7.1719C15.4567 7.34065 15.3536 7.4719 15.3099 7.45315C15.2661 7.43127 15.3161 7.24377 15.2942 7.17815C15.2692 7.0844 15.1786 6.91252 15.1942 6.86252C15.163 6.75627 15.2505 6.70002 15.3192 6.71877H15.3161ZM11.6911 8.07502C11.7418 8.01586 11.8007 7.96429 11.8661 7.9219C11.9286 7.89065 11.9849 7.9469 11.9817 7.94377C11.9911 8.00627 11.9442 8.0594 11.9599 8.14065C11.9724 8.1719 11.9817 8.2094 12.0411 8.1969C12.138 8.11877 12.2286 8.11252 12.3224 8.1094C12.4005 8.11252 12.4036 8.24065 12.3536 8.24065C12.1755 8.27815 12.0974 8.32815 11.9692 8.37502C11.9067 8.41252 11.8567 8.36565 11.8567 8.36252C11.8567 8.3594 11.8224 8.32815 11.8442 8.2469C11.8505 8.1844 11.8255 8.1469 11.7692 8.15315C11.7317 8.17815 11.6942 8.19065 11.6755 8.14377C11.6661 8.11252 11.663 8.09377 11.6911 8.07502ZM15.9599 8.24377C15.9849 8.27502 16.0036 8.30627 15.9567 8.36252L15.8411 8.46252C15.8224 8.49377 15.8099 8.55002 15.8724 8.56565C15.9849 8.5969 16.2474 8.42502 16.2474 8.4219C16.2911 8.39065 16.2786 8.32815 16.2724 8.32815C16.2474 8.30002 16.1911 8.31877 16.1536 8.31252C16.1349 8.31252 16.0755 8.30627 16.1036 8.25002C16.1246 8.22241 16.1415 8.19188 16.1536 8.1594C16.1692 8.1219 16.1536 8.0969 16.0911 8.07502C16.0255 8.06252 15.9974 8.06877 15.9255 8.07502C15.888 8.08127 15.8755 8.10002 15.8661 8.1469C15.8692 8.21877 15.913 8.21565 15.9599 8.24065V8.24377Z" fill="white"/>
<path fill-rule="evenodd" clip-rule="evenodd" d="M11.7118 6.46847C11.6961 6.49972 11.6399 6.49972 11.5868 6.46847C11.5336 6.43722 11.5024 6.38722 11.5211 6.3591C11.5399 6.33097 11.593 6.33097 11.6461 6.3591C11.6993 6.38722 11.7274 6.44035 11.7118 6.46847ZM8.93052 4.79347C8.89927 4.80285 8.85552 4.77472 8.83677 4.73097C8.81802 4.68722 8.82739 4.64972 8.85864 4.64035C8.88989 4.63097 8.93052 4.66222 8.95239 4.70285C8.97427 4.74347 8.96177 4.78722 8.92739 4.7966L8.93052 4.79347Z" fill="#259F00"/>
<path fill-rule="evenodd" clip-rule="evenodd" d="M14.4343 12.2598C14.7281 12.2723 15.0031 12.2598 15.2937 12.2754C15.3468 12.3223 15.3093 12.4316 15.275 12.4254L15.0312 12.416C15.0281 12.3223 14.7906 12.3379 14.7968 12.4191C14.6687 12.4348 14.5531 12.416 14.4218 12.4098C14.3843 12.3629 14.3906 12.2785 14.4343 12.2598Z" fill="#209000"/>
</g>
</svg>
