<svg width="22" height="17" viewBox="0 0 22 17" fill="none" xmlns="http://www.w3.org/2000/svg">
<path d="M0.335449 0.541016H21.6688V16.541H0.335449V0.541016Z" fill="#012169"/>
<path d="M2.83545 0.541016L10.9688 6.57435L19.0688 0.541016H21.6688V2.60768L13.6688 8.57435L21.6688 14.5077V16.541H19.0021L11.0021 10.5743L3.03545 16.541H0.335449V14.541L8.30212 8.60768L0.335449 2.67435V0.541016H2.83545Z" fill="white"/>
<path d="M14.4688 9.90768L21.6688 15.2077V16.541L12.6354 9.90768H14.4688ZM8.33545 10.5743L8.53545 11.741L2.13545 16.541H0.335449L8.33545 10.5743ZM21.6688 0.541016V0.641016L13.3688 6.90768L13.4354 5.44102L20.0021 0.541016H21.6688ZM0.335449 0.541016L8.30212 6.40768H6.30212L0.335449 1.94102V0.541016Z" fill="#C8102E"/>
<path d="M8.36878 0.541016V16.541H13.7021V0.541016H8.36878ZM0.335449 5.87435V11.2077H21.6688V5.87435H0.335449Z" fill="white"/>
<path d="M0.335449 6.97435V10.1743H21.6688V6.97435H0.335449ZM9.43545 0.541016V16.541H12.6354V0.541016H9.43545Z" fill="#C8102E"/>
</svg>
